<mxfile host="app.diagrams.net" agent="Mozilla/5.0 (Windows NT 10.0; Win64; x64) AppleWebKit/537.36 (KHTML, like Gecko) Chrome/131.0.0.0 Safari/537.36" version="25.0.3">
  <diagram name="Page-1" id="5zTtBqRiLo-rwEt3zIiM">
    <mxGraphModel dx="2100" dy="1130" grid="1" gridSize="10" guides="1" tooltips="1" connect="1" arrows="1" fold="1" page="1" pageScale="1" pageWidth="850" pageHeight="1100" math="0" shadow="0">
      <root>
        <mxCell id="0" />
        <mxCell id="1" parent="0" />
        <mxCell id="swCmm5xKt_yj3qullBZ7-1" value="Museum" style="swimlane;fontStyle=0;align=center;verticalAlign=top;childLayout=stackLayout;horizontal=1;startSize=26;horizontalStack=0;resizeParent=1;resizeLast=0;collapsible=1;marginBottom=0;rounded=0;shadow=0;strokeWidth=1;" vertex="1" parent="1">
          <mxGeometry x="79.5" y="600" width="160" height="182" as="geometry">
            <mxRectangle x="130" y="380" width="160" height="26" as="alternateBounds" />
          </mxGeometry>
        </mxCell>
        <mxCell id="swCmm5xKt_yj3qullBZ7-2" value="museum_ID {PK}" style="text;align=left;verticalAlign=top;spacingLeft=4;spacingRight=4;overflow=hidden;rotatable=0;points=[[0,0.5],[1,0.5]];portConstraint=eastwest;" vertex="1" parent="swCmm5xKt_yj3qullBZ7-1">
          <mxGeometry y="26" width="160" height="26" as="geometry" />
        </mxCell>
        <mxCell id="swCmm5xKt_yj3qullBZ7-3" value="museum_name" style="text;align=left;verticalAlign=top;spacingLeft=4;spacingRight=4;overflow=hidden;rotatable=0;points=[[0,0.5],[1,0.5]];portConstraint=eastwest;" vertex="1" parent="swCmm5xKt_yj3qullBZ7-1">
          <mxGeometry y="52" width="160" height="26" as="geometry" />
        </mxCell>
        <mxCell id="swCmm5xKt_yj3qullBZ7-4" value="description" style="text;align=left;verticalAlign=top;spacingLeft=4;spacingRight=4;overflow=hidden;rotatable=0;points=[[0,0.5],[1,0.5]];portConstraint=eastwest;" vertex="1" parent="swCmm5xKt_yj3qullBZ7-1">
          <mxGeometry y="78" width="160" height="26" as="geometry" />
        </mxCell>
        <mxCell id="swCmm5xKt_yj3qullBZ7-5" value="address" style="text;align=left;verticalAlign=top;spacingLeft=4;spacingRight=4;overflow=hidden;rotatable=0;points=[[0,0.5],[1,0.5]];portConstraint=eastwest;" vertex="1" parent="swCmm5xKt_yj3qullBZ7-1">
          <mxGeometry y="104" width="160" height="26" as="geometry" />
        </mxCell>
        <mxCell id="swCmm5xKt_yj3qullBZ7-6" value="phone" style="text;align=left;verticalAlign=top;spacingLeft=4;spacingRight=4;overflow=hidden;rotatable=0;points=[[0,0.5],[1,0.5]];portConstraint=eastwest;" vertex="1" parent="swCmm5xKt_yj3qullBZ7-1">
          <mxGeometry y="130" width="160" height="26" as="geometry" />
        </mxCell>
        <mxCell id="swCmm5xKt_yj3qullBZ7-7" value="contactname" style="text;align=left;verticalAlign=top;spacingLeft=4;spacingRight=4;overflow=hidden;rotatable=0;points=[[0,0.5],[1,0.5]];portConstraint=eastwest;" vertex="1" parent="swCmm5xKt_yj3qullBZ7-1">
          <mxGeometry y="156" width="160" height="26" as="geometry" />
        </mxCell>
        <mxCell id="swCmm5xKt_yj3qullBZ7-8" value="ArtObject" style="swimlane;fontStyle=0;align=center;verticalAlign=top;childLayout=stackLayout;horizontal=1;startSize=26;horizontalStack=0;resizeParent=1;resizeLast=0;collapsible=1;marginBottom=0;rounded=0;shadow=0;strokeWidth=1;" vertex="1" parent="1">
          <mxGeometry x="490" y="374" width="200" height="266" as="geometry">
            <mxRectangle x="130" y="380" width="160" height="26" as="alternateBounds" />
          </mxGeometry>
        </mxCell>
        <mxCell id="swCmm5xKt_yj3qullBZ7-9" value="artobject_ID {PK}" style="text;align=left;verticalAlign=top;spacingLeft=4;spacingRight=4;overflow=hidden;rotatable=0;points=[[0,0.5],[1,0.5]];portConstraint=eastwest;" vertex="1" parent="swCmm5xKt_yj3qullBZ7-8">
          <mxGeometry y="26" width="200" height="26" as="geometry" />
        </mxCell>
        <mxCell id="swCmm5xKt_yj3qullBZ7-10" value="year_creation" style="text;align=left;verticalAlign=top;spacingLeft=4;spacingRight=4;overflow=hidden;rotatable=0;points=[[0,0.5],[1,0.5]];portConstraint=eastwest;" vertex="1" parent="swCmm5xKt_yj3qullBZ7-8">
          <mxGeometry y="52" width="200" height="26" as="geometry" />
        </mxCell>
        <mxCell id="swCmm5xKt_yj3qullBZ7-11" value="title" style="text;align=left;verticalAlign=top;spacingLeft=4;spacingRight=4;overflow=hidden;rotatable=0;points=[[0,0.5],[1,0.5]];portConstraint=eastwest;" vertex="1" parent="swCmm5xKt_yj3qullBZ7-8">
          <mxGeometry y="78" width="200" height="26" as="geometry" />
        </mxCell>
        <mxCell id="swCmm5xKt_yj3qullBZ7-12" value="description" style="text;align=left;verticalAlign=top;spacingLeft=4;spacingRight=4;overflow=hidden;rotatable=0;points=[[0,0.5],[1,0.5]];portConstraint=eastwest;" vertex="1" parent="swCmm5xKt_yj3qullBZ7-8">
          <mxGeometry y="104" width="200" height="26" as="geometry" />
        </mxCell>
        <mxCell id="swCmm5xKt_yj3qullBZ7-15" value="category" style="text;align=left;verticalAlign=top;spacingLeft=4;spacingRight=4;overflow=hidden;rotatable=0;points=[[0,0.5],[1,0.5]];portConstraint=eastwest;" vertex="1" parent="swCmm5xKt_yj3qullBZ7-8">
          <mxGeometry y="130" width="200" height="26" as="geometry" />
        </mxCell>
        <mxCell id="swCmm5xKt_yj3qullBZ7-16" value="date_acquired" style="text;align=left;verticalAlign=top;spacingLeft=4;spacingRight=4;overflow=hidden;rotatable=0;points=[[0,0.5],[1,0.5]];portConstraint=eastwest;" vertex="1" parent="swCmm5xKt_yj3qullBZ7-8">
          <mxGeometry y="156" width="200" height="26" as="geometry" />
        </mxCell>
        <mxCell id="swCmm5xKt_yj3qullBZ7-17" value="status" style="text;align=left;verticalAlign=top;spacingLeft=4;spacingRight=4;overflow=hidden;rotatable=0;points=[[0,0.5],[1,0.5]];portConstraint=eastwest;" vertex="1" parent="swCmm5xKt_yj3qullBZ7-8">
          <mxGeometry y="182" width="200" height="26" as="geometry" />
        </mxCell>
        <mxCell id="swCmm5xKt_yj3qullBZ7-18" value="cost" style="text;align=left;verticalAlign=top;spacingLeft=4;spacingRight=4;overflow=hidden;rotatable=0;points=[[0,0.5],[1,0.5]];portConstraint=eastwest;" vertex="1" parent="swCmm5xKt_yj3qullBZ7-8">
          <mxGeometry y="208" width="200" height="26" as="geometry" />
        </mxCell>
        <mxCell id="swCmm5xKt_yj3qullBZ7-19" value="artcollection (permanent/temporary)" style="text;align=left;verticalAlign=top;spacingLeft=4;spacingRight=4;overflow=hidden;rotatable=0;points=[[0,0.5],[1,0.5]];portConstraint=eastwest;" vertex="1" parent="swCmm5xKt_yj3qullBZ7-8">
          <mxGeometry y="234" width="200" height="26" as="geometry" />
        </mxCell>
        <mxCell id="swCmm5xKt_yj3qullBZ7-21" value="Artist" style="swimlane;fontStyle=0;align=center;verticalAlign=top;childLayout=stackLayout;horizontal=1;startSize=26;horizontalStack=0;resizeParent=1;resizeLast=0;collapsible=1;marginBottom=0;rounded=0;shadow=0;strokeWidth=1;" vertex="1" parent="1">
          <mxGeometry x="198.5" y="80" width="160" height="234" as="geometry">
            <mxRectangle x="130" y="380" width="160" height="26" as="alternateBounds" />
          </mxGeometry>
        </mxCell>
        <mxCell id="swCmm5xKt_yj3qullBZ7-22" value="artist_ID {PK}" style="text;align=left;verticalAlign=top;spacingLeft=4;spacingRight=4;overflow=hidden;rotatable=0;points=[[0,0.5],[1,0.5]];portConstraint=eastwest;" vertex="1" parent="swCmm5xKt_yj3qullBZ7-21">
          <mxGeometry y="26" width="160" height="26" as="geometry" />
        </mxCell>
        <mxCell id="swCmm5xKt_yj3qullBZ7-23" value="artist_name" style="text;align=left;verticalAlign=top;spacingLeft=4;spacingRight=4;overflow=hidden;rotatable=0;points=[[0,0.5],[1,0.5]];portConstraint=eastwest;" vertex="1" parent="swCmm5xKt_yj3qullBZ7-21">
          <mxGeometry y="52" width="160" height="26" as="geometry" />
        </mxCell>
        <mxCell id="swCmm5xKt_yj3qullBZ7-24" value="date_born" style="text;align=left;verticalAlign=top;spacingLeft=4;spacingRight=4;overflow=hidden;rotatable=0;points=[[0,0.5],[1,0.5]];portConstraint=eastwest;" vertex="1" parent="swCmm5xKt_yj3qullBZ7-21">
          <mxGeometry y="78" width="160" height="26" as="geometry" />
        </mxCell>
        <mxCell id="swCmm5xKt_yj3qullBZ7-25" value="date_died" style="text;align=left;verticalAlign=top;spacingLeft=4;spacingRight=4;overflow=hidden;rotatable=0;points=[[0,0.5],[1,0.5]];portConstraint=eastwest;" vertex="1" parent="swCmm5xKt_yj3qullBZ7-21">
          <mxGeometry y="104" width="160" height="26" as="geometry" />
        </mxCell>
        <mxCell id="swCmm5xKt_yj3qullBZ7-26" value="country_of_origin" style="text;align=left;verticalAlign=top;spacingLeft=4;spacingRight=4;overflow=hidden;rotatable=0;points=[[0,0.5],[1,0.5]];portConstraint=eastwest;" vertex="1" parent="swCmm5xKt_yj3qullBZ7-21">
          <mxGeometry y="130" width="160" height="26" as="geometry" />
        </mxCell>
        <mxCell id="swCmm5xKt_yj3qullBZ7-27" value="epoch" style="text;align=left;verticalAlign=top;spacingLeft=4;spacingRight=4;overflow=hidden;rotatable=0;points=[[0,0.5],[1,0.5]];portConstraint=eastwest;" vertex="1" parent="swCmm5xKt_yj3qullBZ7-21">
          <mxGeometry y="156" width="160" height="26" as="geometry" />
        </mxCell>
        <mxCell id="swCmm5xKt_yj3qullBZ7-28" value="main_style" style="text;align=left;verticalAlign=top;spacingLeft=4;spacingRight=4;overflow=hidden;rotatable=0;points=[[0,0.5],[1,0.5]];portConstraint=eastwest;" vertex="1" parent="swCmm5xKt_yj3qullBZ7-21">
          <mxGeometry y="182" width="160" height="26" as="geometry" />
        </mxCell>
        <mxCell id="swCmm5xKt_yj3qullBZ7-29" value="description" style="text;align=left;verticalAlign=top;spacingLeft=4;spacingRight=4;overflow=hidden;rotatable=0;points=[[0,0.5],[1,0.5]];portConstraint=eastwest;" vertex="1" parent="swCmm5xKt_yj3qullBZ7-21">
          <mxGeometry y="208" width="160" height="26" as="geometry" />
        </mxCell>
        <mxCell id="swCmm5xKt_yj3qullBZ7-30" value="Exhibition" style="swimlane;fontStyle=0;align=center;verticalAlign=top;childLayout=stackLayout;horizontal=1;startSize=26;horizontalStack=0;resizeParent=1;resizeLast=0;collapsible=1;marginBottom=0;rounded=0;shadow=0;strokeWidth=1;" vertex="1" parent="1">
          <mxGeometry x="1000.5" y="374" width="160" height="182" as="geometry">
            <mxRectangle x="130" y="380" width="160" height="26" as="alternateBounds" />
          </mxGeometry>
        </mxCell>
        <mxCell id="swCmm5xKt_yj3qullBZ7-31" value="exhibition_ID {PK}" style="text;align=left;verticalAlign=top;spacingLeft=4;spacingRight=4;overflow=hidden;rotatable=0;points=[[0,0.5],[1,0.5]];portConstraint=eastwest;" vertex="1" parent="swCmm5xKt_yj3qullBZ7-30">
          <mxGeometry y="26" width="160" height="26" as="geometry" />
        </mxCell>
        <mxCell id="swCmm5xKt_yj3qullBZ7-32" value="exhibition_name" style="text;align=left;verticalAlign=top;spacingLeft=4;spacingRight=4;overflow=hidden;rotatable=0;points=[[0,0.5],[1,0.5]];portConstraint=eastwest;" vertex="1" parent="swCmm5xKt_yj3qullBZ7-30">
          <mxGeometry y="52" width="160" height="26" as="geometry" />
        </mxCell>
        <mxCell id="swCmm5xKt_yj3qullBZ7-33" value="category (regular/featured)" style="text;align=left;verticalAlign=top;spacingLeft=4;spacingRight=4;overflow=hidden;rotatable=0;points=[[0,0.5],[1,0.5]];portConstraint=eastwest;" vertex="1" parent="swCmm5xKt_yj3qullBZ7-30">
          <mxGeometry y="78" width="160" height="26" as="geometry" />
        </mxCell>
        <mxCell id="swCmm5xKt_yj3qullBZ7-34" value="type" style="text;align=left;verticalAlign=top;spacingLeft=4;spacingRight=4;overflow=hidden;rotatable=0;points=[[0,0.5],[1,0.5]];portConstraint=eastwest;" vertex="1" parent="swCmm5xKt_yj3qullBZ7-30">
          <mxGeometry y="104" width="160" height="26" as="geometry" />
        </mxCell>
        <mxCell id="swCmm5xKt_yj3qullBZ7-35" value="start_period_date" style="text;align=left;verticalAlign=top;spacingLeft=4;spacingRight=4;overflow=hidden;rotatable=0;points=[[0,0.5],[1,0.5]];portConstraint=eastwest;" vertex="1" parent="swCmm5xKt_yj3qullBZ7-30">
          <mxGeometry y="130" width="160" height="26" as="geometry" />
        </mxCell>
        <mxCell id="swCmm5xKt_yj3qullBZ7-36" value="end_period_date" style="text;align=left;verticalAlign=top;spacingLeft=4;spacingRight=4;overflow=hidden;rotatable=0;points=[[0,0.5],[1,0.5]];portConstraint=eastwest;" vertex="1" parent="swCmm5xKt_yj3qullBZ7-30">
          <mxGeometry y="156" width="160" height="26" as="geometry" />
        </mxCell>
        <mxCell id="swCmm5xKt_yj3qullBZ7-37" value="Mimic" style="swimlane;fontStyle=0;align=center;verticalAlign=top;childLayout=stackLayout;horizontal=1;startSize=26;horizontalStack=0;resizeParent=1;resizeLast=0;collapsible=1;marginBottom=0;rounded=0;shadow=0;strokeWidth=1;" vertex="1" parent="1">
          <mxGeometry x="743.5" y="214" width="160" height="110" as="geometry">
            <mxRectangle x="130" y="380" width="160" height="26" as="alternateBounds" />
          </mxGeometry>
        </mxCell>
        <mxCell id="swCmm5xKt_yj3qullBZ7-38" value="mimic_ID {PK}" style="text;align=left;verticalAlign=top;spacingLeft=4;spacingRight=4;overflow=hidden;rotatable=0;points=[[0,0.5],[1,0.5]];portConstraint=eastwest;" vertex="1" parent="swCmm5xKt_yj3qullBZ7-37">
          <mxGeometry y="26" width="160" height="26" as="geometry" />
        </mxCell>
        <mxCell id="swCmm5xKt_yj3qullBZ7-39" value="mimic_name" style="text;align=left;verticalAlign=top;spacingLeft=4;spacingRight=4;overflow=hidden;rotatable=0;points=[[0,0.5],[1,0.5]];portConstraint=eastwest;" vertex="1" parent="swCmm5xKt_yj3qullBZ7-37">
          <mxGeometry y="52" width="160" height="26" as="geometry" />
        </mxCell>
        <mxCell id="swCmm5xKt_yj3qullBZ7-40" value="price" style="text;align=left;verticalAlign=top;spacingLeft=4;spacingRight=4;overflow=hidden;rotatable=0;points=[[0,0.5],[1,0.5]];portConstraint=eastwest;" vertex="1" parent="swCmm5xKt_yj3qullBZ7-37">
          <mxGeometry y="78" width="160" height="26" as="geometry" />
        </mxCell>
        <mxCell id="swCmm5xKt_yj3qullBZ7-41" value="LoyalVisitor" style="swimlane;fontStyle=0;align=center;verticalAlign=top;childLayout=stackLayout;horizontal=1;startSize=26;horizontalStack=0;resizeParent=1;resizeLast=0;collapsible=1;marginBottom=0;rounded=0;shadow=0;strokeWidth=1;" vertex="1" parent="1">
          <mxGeometry x="1498.5" y="374" width="160" height="131" as="geometry">
            <mxRectangle x="130" y="380" width="160" height="26" as="alternateBounds" />
          </mxGeometry>
        </mxCell>
        <mxCell id="swCmm5xKt_yj3qullBZ7-42" value="loyaltymember_No {PK}" style="text;align=left;verticalAlign=top;spacingLeft=4;spacingRight=4;overflow=hidden;rotatable=0;points=[[0,0.5],[1,0.5]];portConstraint=eastwest;" vertex="1" parent="swCmm5xKt_yj3qullBZ7-41">
          <mxGeometry y="26" width="160" height="26" as="geometry" />
        </mxCell>
        <mxCell id="swCmm5xKt_yj3qullBZ7-43" value="loyalvisitor_name" style="text;align=left;verticalAlign=top;spacingLeft=4;spacingRight=4;overflow=hidden;rotatable=0;points=[[0,0.5],[1,0.5]];portConstraint=eastwest;" vertex="1" parent="swCmm5xKt_yj3qullBZ7-41">
          <mxGeometry y="52" width="160" height="26" as="geometry" />
        </mxCell>
        <mxCell id="swCmm5xKt_yj3qullBZ7-44" value="status" style="text;align=left;verticalAlign=top;spacingLeft=4;spacingRight=4;overflow=hidden;rotatable=0;points=[[0,0.5],[1,0.5]];portConstraint=eastwest;" vertex="1" parent="swCmm5xKt_yj3qullBZ7-41">
          <mxGeometry y="78" width="160" height="26" as="geometry" />
        </mxCell>
        <mxCell id="swCmm5xKt_yj3qullBZ7-45" value="preference" style="text;align=left;verticalAlign=top;spacingLeft=4;spacingRight=4;overflow=hidden;rotatable=0;points=[[0,0.5],[1,0.5]];portConstraint=eastwest;" vertex="1" parent="swCmm5xKt_yj3qullBZ7-41">
          <mxGeometry y="104" width="160" height="26" as="geometry" />
        </mxCell>
        <mxCell id="swCmm5xKt_yj3qullBZ7-46" value="Staff" style="swimlane;fontStyle=0;align=center;verticalAlign=top;childLayout=stackLayout;horizontal=1;startSize=26;horizontalStack=0;resizeParent=1;resizeLast=0;collapsible=1;marginBottom=0;rounded=0;shadow=0;strokeWidth=1;" vertex="1" parent="1">
          <mxGeometry x="1000.5" y="635.36" width="160" height="104" as="geometry">
            <mxRectangle x="130" y="380" width="160" height="26" as="alternateBounds" />
          </mxGeometry>
        </mxCell>
        <mxCell id="swCmm5xKt_yj3qullBZ7-47" value="staff_ID {PK}" style="text;align=left;verticalAlign=top;spacingLeft=4;spacingRight=4;overflow=hidden;rotatable=0;points=[[0,0.5],[1,0.5]];portConstraint=eastwest;" vertex="1" parent="swCmm5xKt_yj3qullBZ7-46">
          <mxGeometry y="26" width="160" height="26" as="geometry" />
        </mxCell>
        <mxCell id="swCmm5xKt_yj3qullBZ7-48" value="staff_name" style="text;align=left;verticalAlign=top;spacingLeft=4;spacingRight=4;overflow=hidden;rotatable=0;points=[[0,0.5],[1,0.5]];portConstraint=eastwest;" vertex="1" parent="swCmm5xKt_yj3qullBZ7-46">
          <mxGeometry y="52" width="160" height="26" as="geometry" />
        </mxCell>
        <mxCell id="swCmm5xKt_yj3qullBZ7-49" value="types" style="text;align=left;verticalAlign=top;spacingLeft=4;spacingRight=4;overflow=hidden;rotatable=0;points=[[0,0.5],[1,0.5]];portConstraint=eastwest;" vertex="1" parent="swCmm5xKt_yj3qullBZ7-46">
          <mxGeometry y="78" width="160" height="26" as="geometry" />
        </mxCell>
        <mxCell id="swCmm5xKt_yj3qullBZ7-50" value="Maintainance" style="swimlane;fontStyle=0;align=center;verticalAlign=top;childLayout=stackLayout;horizontal=1;startSize=26;horizontalStack=0;resizeParent=1;resizeLast=0;collapsible=1;marginBottom=0;rounded=0;shadow=0;strokeWidth=1;" vertex="1" parent="1">
          <mxGeometry x="743.5" y="752.36" width="160" height="60" as="geometry">
            <mxRectangle x="130" y="380" width="160" height="26" as="alternateBounds" />
          </mxGeometry>
        </mxCell>
        <mxCell id="swCmm5xKt_yj3qullBZ7-51" value="assign_date" style="text;align=left;verticalAlign=top;spacingLeft=4;spacingRight=4;overflow=hidden;rotatable=0;points=[[0,0.5],[1,0.5]];portConstraint=eastwest;" vertex="1" parent="swCmm5xKt_yj3qullBZ7-50">
          <mxGeometry y="26" width="160" height="26" as="geometry" />
        </mxCell>
        <mxCell id="swCmm5xKt_yj3qullBZ7-52" value="Allocation" style="swimlane;fontStyle=0;align=center;verticalAlign=top;childLayout=stackLayout;horizontal=1;startSize=26;horizontalStack=0;resizeParent=1;resizeLast=0;collapsible=1;marginBottom=0;rounded=0;shadow=0;strokeWidth=1;" vertex="1" parent="1">
          <mxGeometry x="1262" y="752.36" width="160" height="60" as="geometry">
            <mxRectangle x="130" y="380" width="160" height="26" as="alternateBounds" />
          </mxGeometry>
        </mxCell>
        <mxCell id="swCmm5xKt_yj3qullBZ7-53" value="assign_date" style="text;align=left;verticalAlign=top;spacingLeft=4;spacingRight=4;overflow=hidden;rotatable=0;points=[[0,0.5],[1,0.5]];portConstraint=eastwest;" vertex="1" parent="swCmm5xKt_yj3qullBZ7-52">
          <mxGeometry y="26" width="160" height="34" as="geometry" />
        </mxCell>
        <mxCell id="swCmm5xKt_yj3qullBZ7-54" value="ExhibitionSell" style="swimlane;fontStyle=0;align=center;verticalAlign=top;childLayout=stackLayout;horizontal=1;startSize=26;horizontalStack=0;resizeParent=1;resizeLast=0;collapsible=1;marginBottom=0;rounded=0;shadow=0;strokeWidth=1;" vertex="1" parent="1">
          <mxGeometry x="1268.5" y="214" width="140" height="78" as="geometry">
            <mxRectangle x="130" y="380" width="160" height="26" as="alternateBounds" />
          </mxGeometry>
        </mxCell>
        <mxCell id="swCmm5xKt_yj3qullBZ7-55" value="start_date_sale" style="text;align=left;verticalAlign=top;spacingLeft=4;spacingRight=4;overflow=hidden;rotatable=0;points=[[0,0.5],[1,0.5]];portConstraint=eastwest;" vertex="1" parent="swCmm5xKt_yj3qullBZ7-54">
          <mxGeometry y="26" width="140" height="26" as="geometry" />
        </mxCell>
        <mxCell id="swCmm5xKt_yj3qullBZ7-56" value="end_date_sale" style="text;align=left;verticalAlign=top;spacingLeft=4;spacingRight=4;overflow=hidden;rotatable=0;points=[[0,0.5],[1,0.5]];portConstraint=eastwest;" vertex="1" parent="swCmm5xKt_yj3qullBZ7-54">
          <mxGeometry y="52" width="140" height="26" as="geometry" />
        </mxCell>
        <mxCell id="swCmm5xKt_yj3qullBZ7-57" value="" style="endArrow=none;html=1;rounded=0;exitX=1.004;exitY=-0.007;exitDx=0;exitDy=0;exitPerimeter=0;entryX=-0.002;entryY=-0.003;entryDx=0;entryDy=0;entryPerimeter=0;" edge="1" parent="1" source="swCmm5xKt_yj3qullBZ7-22" target="swCmm5xKt_yj3qullBZ7-9">
          <mxGeometry width="50" height="50" relative="1" as="geometry">
            <mxPoint x="858.5" y="454" as="sourcePoint" />
            <mxPoint x="486.5" y="392" as="targetPoint" />
            <Array as="points">
              <mxPoint x="420" y="106" />
              <mxPoint x="420" y="400" />
            </Array>
          </mxGeometry>
        </mxCell>
        <mxCell id="swCmm5xKt_yj3qullBZ7-58" value="Artist create Art Object" style="edgeLabel;html=1;align=center;verticalAlign=middle;resizable=0;points=[];" vertex="1" connectable="0" parent="swCmm5xKt_yj3qullBZ7-57">
          <mxGeometry x="-0.0711" relative="1" as="geometry">
            <mxPoint x="11" y="16" as="offset" />
          </mxGeometry>
        </mxCell>
        <mxCell id="swCmm5xKt_yj3qullBZ7-59" value="[1..*]" style="text;html=1;align=center;verticalAlign=middle;whiteSpace=wrap;rounded=0;" vertex="1" parent="1">
          <mxGeometry x="355" y="80" width="45" height="30" as="geometry" />
        </mxCell>
        <mxCell id="swCmm5xKt_yj3qullBZ7-60" value="[1..*]" style="text;html=1;align=center;verticalAlign=middle;whiteSpace=wrap;rounded=0;" vertex="1" parent="1">
          <mxGeometry x="450" y="376" width="45" height="30" as="geometry" />
        </mxCell>
        <mxCell id="swCmm5xKt_yj3qullBZ7-61" value="" style="endArrow=none;html=1;rounded=0;entryX=0.998;entryY=0.004;entryDx=0;entryDy=0;entryPerimeter=0;exitX=0;exitY=0.5;exitDx=0;exitDy=0;" edge="1" parent="1" source="swCmm5xKt_yj3qullBZ7-16" target="swCmm5xKt_yj3qullBZ7-2">
          <mxGeometry width="50" height="50" relative="1" as="geometry">
            <mxPoint x="430" y="605.64" as="sourcePoint" />
            <mxPoint x="795.5" y="394.64" as="targetPoint" />
            <Array as="points">
              <mxPoint x="330" y="543" />
              <mxPoint x="330" y="626" />
            </Array>
          </mxGeometry>
        </mxCell>
        <mxCell id="swCmm5xKt_yj3qullBZ7-62" value="Museum Art Collections" style="edgeLabel;html=1;align=center;verticalAlign=middle;resizable=0;points=[];" vertex="1" connectable="0" parent="swCmm5xKt_yj3qullBZ7-61">
          <mxGeometry x="-0.0925" y="-1" relative="1" as="geometry">
            <mxPoint x="-8" y="1" as="offset" />
          </mxGeometry>
        </mxCell>
        <mxCell id="swCmm5xKt_yj3qullBZ7-65" value="&lt;span style=&quot;font-size: 11px; text-wrap-mode: nowrap; background-color: rgb(255, 255, 255);&quot;&gt;Featured Exhibitions&lt;/span&gt;&lt;div&gt;&lt;span style=&quot;font-size: 11px; text-wrap-mode: nowrap; background-color: rgb(255, 255, 255);&quot;&gt;sell Mimic&lt;/span&gt;&lt;/div&gt;" style="rhombus;whiteSpace=wrap;html=1;" vertex="1" parent="1">
          <mxGeometry x="995.5" y="200" width="170" height="80" as="geometry" />
        </mxCell>
        <mxCell id="swCmm5xKt_yj3qullBZ7-66" value="" style="endArrow=none;html=1;rounded=0;entryX=0.5;entryY=0;entryDx=0;entryDy=0;exitX=0;exitY=0.001;exitDx=0;exitDy=0;exitPerimeter=0;" edge="1" parent="1" source="swCmm5xKt_yj3qullBZ7-38" target="swCmm5xKt_yj3qullBZ7-8">
          <mxGeometry width="50" height="50" relative="1" as="geometry">
            <mxPoint x="718.5" y="255" as="sourcePoint" />
            <mxPoint x="843.5" y="548" as="targetPoint" />
            <Array as="points">
              <mxPoint x="590" y="240" />
            </Array>
          </mxGeometry>
        </mxCell>
        <mxCell id="swCmm5xKt_yj3qullBZ7-67" value="Mimic of the original art object" style="edgeLabel;html=1;align=center;verticalAlign=middle;resizable=0;points=[];" vertex="1" connectable="0" parent="swCmm5xKt_yj3qullBZ7-66">
          <mxGeometry x="0.2974" y="-1" relative="1" as="geometry">
            <mxPoint x="1" y="41" as="offset" />
          </mxGeometry>
        </mxCell>
        <mxCell id="swCmm5xKt_yj3qullBZ7-68" value="" style="endArrow=none;html=1;rounded=0;exitX=1;exitY=0.5;exitDx=0;exitDy=0;dashed=1;entryX=-0.001;entryY=0;entryDx=0;entryDy=0;entryPerimeter=0;" edge="1" parent="1" source="swCmm5xKt_yj3qullBZ7-65" target="swCmm5xKt_yj3qullBZ7-55">
          <mxGeometry width="50" height="50" relative="1" as="geometry">
            <mxPoint x="978.5" y="266" as="sourcePoint" />
            <mxPoint x="1228.5" y="245" as="targetPoint" />
          </mxGeometry>
        </mxCell>
        <mxCell id="swCmm5xKt_yj3qullBZ7-69" value="Sell" style="edgeLabel;html=1;align=center;verticalAlign=middle;resizable=0;points=[];" vertex="1" connectable="0" parent="swCmm5xKt_yj3qullBZ7-68">
          <mxGeometry x="-0.0731" y="-2" relative="1" as="geometry">
            <mxPoint as="offset" />
          </mxGeometry>
        </mxCell>
        <mxCell id="swCmm5xKt_yj3qullBZ7-70" value="" style="endArrow=none;html=1;rounded=0;entryX=1.001;entryY=-0.004;entryDx=0;entryDy=0;entryPerimeter=0;exitX=0;exitY=0.5;exitDx=0;exitDy=0;" edge="1" parent="1" source="swCmm5xKt_yj3qullBZ7-65" target="swCmm5xKt_yj3qullBZ7-38">
          <mxGeometry width="50" height="50" relative="1" as="geometry">
            <mxPoint x="958.5" y="205" as="sourcePoint" />
            <mxPoint x="918.5" y="235" as="targetPoint" />
          </mxGeometry>
        </mxCell>
        <mxCell id="swCmm5xKt_yj3qullBZ7-71" value="" style="endArrow=none;html=1;rounded=0;entryX=0.5;entryY=0;entryDx=0;entryDy=0;exitX=0.5;exitY=1;exitDx=0;exitDy=0;" edge="1" parent="1" source="swCmm5xKt_yj3qullBZ7-65" target="swCmm5xKt_yj3qullBZ7-30">
          <mxGeometry width="50" height="50" relative="1" as="geometry">
            <mxPoint x="1005.5" y="186" as="sourcePoint" />
            <mxPoint x="925.5" y="186" as="targetPoint" />
          </mxGeometry>
        </mxCell>
        <mxCell id="swCmm5xKt_yj3qullBZ7-72" value="&lt;span style=&quot;font-size: 11px; text-wrap-mode: nowrap; background-color: rgb(255, 255, 255);&quot;&gt;Exhibition show Art Object&lt;/span&gt;" style="rhombus;whiteSpace=wrap;html=1;" vertex="1" parent="1">
          <mxGeometry x="738.5" y="359" width="170" height="80" as="geometry" />
        </mxCell>
        <mxCell id="swCmm5xKt_yj3qullBZ7-73" value="" style="endArrow=none;html=1;rounded=0;exitX=0;exitY=0.5;exitDx=0;exitDy=0;entryX=1.001;entryY=-0.005;entryDx=0;entryDy=0;entryPerimeter=0;" edge="1" parent="1" source="swCmm5xKt_yj3qullBZ7-72" target="swCmm5xKt_yj3qullBZ7-9">
          <mxGeometry width="50" height="50" relative="1" as="geometry">
            <mxPoint x="1068.5" y="304" as="sourcePoint" />
            <mxPoint x="688.5" y="574" as="targetPoint" />
          </mxGeometry>
        </mxCell>
        <mxCell id="swCmm5xKt_yj3qullBZ7-74" value="" style="endArrow=none;html=1;rounded=0;exitX=1;exitY=0.5;exitDx=0;exitDy=0;entryX=0;entryY=-0.005;entryDx=0;entryDy=0;entryPerimeter=0;" edge="1" parent="1" source="swCmm5xKt_yj3qullBZ7-72" target="swCmm5xKt_yj3qullBZ7-31">
          <mxGeometry width="50" height="50" relative="1" as="geometry">
            <mxPoint x="748.5" y="527" as="sourcePoint" />
            <mxPoint x="668.5" y="527" as="targetPoint" />
          </mxGeometry>
        </mxCell>
        <mxCell id="swCmm5xKt_yj3qullBZ7-75" value="" style="endArrow=none;html=1;rounded=0;entryX=0.5;entryY=0;entryDx=0;entryDy=0;exitX=0.5;exitY=1;exitDx=0;exitDy=0;dashed=1;" edge="1" parent="1" source="swCmm5xKt_yj3qullBZ7-72" target="swCmm5xKt_yj3qullBZ7-77">
          <mxGeometry width="50" height="50" relative="1" as="geometry">
            <mxPoint x="1188.5" y="264" as="sourcePoint" />
            <mxPoint x="833.5" y="604" as="targetPoint" />
          </mxGeometry>
        </mxCell>
        <mxCell id="swCmm5xKt_yj3qullBZ7-76" value="Show" style="edgeLabel;html=1;align=center;verticalAlign=middle;resizable=0;points=[];" vertex="1" connectable="0" parent="swCmm5xKt_yj3qullBZ7-75">
          <mxGeometry x="-0.0731" y="-2" relative="1" as="geometry">
            <mxPoint as="offset" />
          </mxGeometry>
        </mxCell>
        <mxCell id="swCmm5xKt_yj3qullBZ7-77" value="ExhibitionShow" style="swimlane;fontStyle=0;align=center;verticalAlign=top;childLayout=stackLayout;horizontal=1;startSize=26;horizontalStack=0;resizeParent=1;resizeLast=0;collapsible=1;marginBottom=0;rounded=0;shadow=0;strokeWidth=1;" vertex="1" parent="1">
          <mxGeometry x="753.5" y="480" width="140" height="78" as="geometry">
            <mxRectangle x="130" y="380" width="160" height="26" as="alternateBounds" />
          </mxGeometry>
        </mxCell>
        <mxCell id="swCmm5xKt_yj3qullBZ7-78" value="start_date_show" style="text;align=left;verticalAlign=top;spacingLeft=4;spacingRight=4;overflow=hidden;rotatable=0;points=[[0,0.5],[1,0.5]];portConstraint=eastwest;" vertex="1" parent="swCmm5xKt_yj3qullBZ7-77">
          <mxGeometry y="26" width="140" height="26" as="geometry" />
        </mxCell>
        <mxCell id="swCmm5xKt_yj3qullBZ7-79" value="end_date_show" style="text;align=left;verticalAlign=top;spacingLeft=4;spacingRight=4;overflow=hidden;rotatable=0;points=[[0,0.5],[1,0.5]];portConstraint=eastwest;" vertex="1" parent="swCmm5xKt_yj3qullBZ7-77">
          <mxGeometry y="52" width="140" height="26" as="geometry" />
        </mxCell>
        <mxCell id="swCmm5xKt_yj3qullBZ7-80" value="&lt;span style=&quot;font-size: 11px; text-wrap-mode: nowrap; background-color: rgb(255, 255, 255);&quot;&gt;Curator maintain Art Object&lt;/span&gt;" style="rhombus;whiteSpace=wrap;html=1;" vertex="1" parent="1">
          <mxGeometry x="738.5" y="620" width="170" height="80" as="geometry" />
        </mxCell>
        <mxCell id="swCmm5xKt_yj3qullBZ7-81" value="&lt;span style=&quot;font-size: 11px; text-wrap-mode: nowrap; background-color: rgb(255, 255, 255);&quot;&gt;Supervisor allocate Exhibition&lt;/span&gt;" style="rhombus;whiteSpace=wrap;html=1;" vertex="1" parent="1">
          <mxGeometry x="1257" y="620" width="170" height="80" as="geometry" />
        </mxCell>
        <mxCell id="swCmm5xKt_yj3qullBZ7-82" value="" style="endArrow=none;html=1;rounded=0;entryX=0.5;entryY=0;entryDx=0;entryDy=0;exitX=0.5;exitY=1;exitDx=0;exitDy=0;dashed=1;" edge="1" parent="1" source="swCmm5xKt_yj3qullBZ7-80" target="swCmm5xKt_yj3qullBZ7-50">
          <mxGeometry width="50" height="50" relative="1" as="geometry">
            <mxPoint x="729" y="496.36" as="sourcePoint" />
            <mxPoint x="729" y="546.36" as="targetPoint" />
          </mxGeometry>
        </mxCell>
        <mxCell id="swCmm5xKt_yj3qullBZ7-176" value="Maintain" style="edgeLabel;html=1;align=center;verticalAlign=middle;resizable=0;points=[];" vertex="1" connectable="0" parent="swCmm5xKt_yj3qullBZ7-82">
          <mxGeometry x="0.0105" relative="1" as="geometry">
            <mxPoint y="-1" as="offset" />
          </mxGeometry>
        </mxCell>
        <mxCell id="swCmm5xKt_yj3qullBZ7-84" value="" style="endArrow=none;html=1;rounded=0;entryX=1;entryY=0.5;entryDx=0;entryDy=0;exitX=0;exitY=0.25;exitDx=0;exitDy=0;" edge="1" parent="1" source="swCmm5xKt_yj3qullBZ7-46" target="swCmm5xKt_yj3qullBZ7-80">
          <mxGeometry width="50" height="50" relative="1" as="geometry">
            <mxPoint x="994" y="646.36" as="sourcePoint" />
            <mxPoint x="400" y="484.36" as="targetPoint" />
          </mxGeometry>
        </mxCell>
        <mxCell id="swCmm5xKt_yj3qullBZ7-85" value="" style="endArrow=none;html=1;rounded=0;entryX=0;entryY=0.5;entryDx=0;entryDy=0;exitX=1;exitY=0.25;exitDx=0;exitDy=0;" edge="1" parent="1" source="swCmm5xKt_yj3qullBZ7-46" target="swCmm5xKt_yj3qullBZ7-81">
          <mxGeometry width="50" height="50" relative="1" as="geometry">
            <mxPoint x="1254" y="776" as="sourcePoint" />
            <mxPoint x="1107" y="793" as="targetPoint" />
          </mxGeometry>
        </mxCell>
        <mxCell id="swCmm5xKt_yj3qullBZ7-86" value="" style="endArrow=none;html=1;rounded=0;entryX=0.5;entryY=0;entryDx=0;entryDy=0;exitX=0.5;exitY=1;exitDx=0;exitDy=0;dashed=1;" edge="1" parent="1" source="swCmm5xKt_yj3qullBZ7-81" target="swCmm5xKt_yj3qullBZ7-52">
          <mxGeometry width="50" height="50" relative="1" as="geometry">
            <mxPoint x="1267" y="325" as="sourcePoint" />
            <mxPoint x="1367" y="323" as="targetPoint" />
          </mxGeometry>
        </mxCell>
        <mxCell id="swCmm5xKt_yj3qullBZ7-87" value="Allocate" style="edgeLabel;html=1;align=center;verticalAlign=middle;resizable=0;points=[];" vertex="1" connectable="0" parent="swCmm5xKt_yj3qullBZ7-86">
          <mxGeometry x="-0.0731" y="-2" relative="1" as="geometry">
            <mxPoint as="offset" />
          </mxGeometry>
        </mxCell>
        <mxCell id="swCmm5xKt_yj3qullBZ7-88" value="[1..*]" style="text;html=1;align=center;verticalAlign=middle;whiteSpace=wrap;rounded=0;" vertex="1" parent="1">
          <mxGeometry x="684.5" y="376" width="45" height="30" as="geometry" />
        </mxCell>
        <mxCell id="swCmm5xKt_yj3qullBZ7-89" value="[1..*]" style="text;html=1;align=center;verticalAlign=middle;whiteSpace=wrap;rounded=0;" vertex="1" parent="1">
          <mxGeometry x="958.5" y="376" width="45" height="30" as="geometry" />
        </mxCell>
        <mxCell id="swCmm5xKt_yj3qullBZ7-90" value="[1..1]" style="text;html=1;align=center;verticalAlign=middle;whiteSpace=wrap;rounded=0;" vertex="1" parent="1">
          <mxGeometry x="539.5" y="348" width="45" height="30" as="geometry" />
        </mxCell>
        <mxCell id="swCmm5xKt_yj3qullBZ7-91" value="[0..*]" style="text;html=1;align=center;verticalAlign=middle;whiteSpace=wrap;rounded=0;" vertex="1" parent="1">
          <mxGeometry x="703.5" y="215" width="45" height="30" as="geometry" />
        </mxCell>
        <mxCell id="swCmm5xKt_yj3qullBZ7-92" value="&lt;span style=&quot;font-size: 11px; text-wrap-mode: nowrap; background-color: rgb(255, 255, 255);&quot;&gt;Invitation Loyal Visitor&lt;br&gt;to Featured Exhibition&lt;/span&gt;" style="rhombus;whiteSpace=wrap;html=1;" vertex="1" parent="1">
          <mxGeometry x="1253.5" y="360" width="170" height="80" as="geometry" />
        </mxCell>
        <mxCell id="swCmm5xKt_yj3qullBZ7-93" value="" style="endArrow=none;html=1;rounded=0;entryX=0.5;entryY=0;entryDx=0;entryDy=0;exitX=0.5;exitY=1;exitDx=0;exitDy=0;dashed=1;" edge="1" parent="1" source="swCmm5xKt_yj3qullBZ7-92" target="swCmm5xKt_yj3qullBZ7-95">
          <mxGeometry width="50" height="50" relative="1" as="geometry">
            <mxPoint x="1372.5" y="475" as="sourcePoint" />
            <mxPoint x="1372.5" y="525" as="targetPoint" />
          </mxGeometry>
        </mxCell>
        <mxCell id="swCmm5xKt_yj3qullBZ7-94" value="Sent" style="edgeLabel;html=1;align=center;verticalAlign=middle;resizable=0;points=[];" vertex="1" connectable="0" parent="swCmm5xKt_yj3qullBZ7-93">
          <mxGeometry x="-0.0731" y="-2" relative="1" as="geometry">
            <mxPoint as="offset" />
          </mxGeometry>
        </mxCell>
        <mxCell id="swCmm5xKt_yj3qullBZ7-95" value="Invitation" style="swimlane;fontStyle=0;align=center;verticalAlign=top;childLayout=stackLayout;horizontal=1;startSize=26;horizontalStack=0;resizeParent=1;resizeLast=0;collapsible=1;marginBottom=0;rounded=0;shadow=0;strokeWidth=1;" vertex="1" parent="1">
          <mxGeometry x="1268.5" y="480" width="140" height="81" as="geometry">
            <mxRectangle x="130" y="380" width="160" height="26" as="alternateBounds" />
          </mxGeometry>
        </mxCell>
        <mxCell id="swCmm5xKt_yj3qullBZ7-96" value="Invitation_ID {PK}" style="text;align=left;verticalAlign=top;spacingLeft=4;spacingRight=4;overflow=hidden;rotatable=0;points=[[0,0.5],[1,0.5]];portConstraint=eastwest;" vertex="1" parent="swCmm5xKt_yj3qullBZ7-95">
          <mxGeometry y="26" width="140" height="26" as="geometry" />
        </mxCell>
        <mxCell id="swCmm5xKt_yj3qullBZ7-97" value="datesent" style="text;align=left;verticalAlign=top;spacingLeft=4;spacingRight=4;overflow=hidden;rotatable=0;points=[[0,0.5],[1,0.5]];portConstraint=eastwest;" vertex="1" parent="swCmm5xKt_yj3qullBZ7-95">
          <mxGeometry y="52" width="140" height="26" as="geometry" />
        </mxCell>
        <mxCell id="swCmm5xKt_yj3qullBZ7-98" value="" style="endArrow=none;html=1;rounded=0;exitX=0;exitY=0.5;exitDx=0;exitDy=0;entryX=1;entryY=0.003;entryDx=0;entryDy=0;entryPerimeter=0;" edge="1" parent="1" source="swCmm5xKt_yj3qullBZ7-92" target="swCmm5xKt_yj3qullBZ7-31">
          <mxGeometry width="50" height="50" relative="1" as="geometry">
            <mxPoint x="1238.5" y="605" as="sourcePoint" />
            <mxPoint x="1166.5" y="405" as="targetPoint" />
          </mxGeometry>
        </mxCell>
        <mxCell id="swCmm5xKt_yj3qullBZ7-99" value="" style="endArrow=none;html=1;rounded=0;entryX=1;entryY=0.5;entryDx=0;entryDy=0;exitX=0.001;exitY=-0.003;exitDx=0;exitDy=0;exitPerimeter=0;" edge="1" parent="1" source="swCmm5xKt_yj3qullBZ7-42" target="swCmm5xKt_yj3qullBZ7-92">
          <mxGeometry width="50" height="50" relative="1" as="geometry">
            <mxPoint x="1498.5" y="440" as="sourcePoint" />
            <mxPoint x="1478.5" y="365" as="targetPoint" />
          </mxGeometry>
        </mxCell>
        <mxCell id="swCmm5xKt_yj3qullBZ7-100" value="[0..*]" style="text;html=1;align=center;verticalAlign=middle;whiteSpace=wrap;rounded=0;" vertex="1" parent="1">
          <mxGeometry x="899.5" y="215" width="45" height="30" as="geometry" />
        </mxCell>
        <mxCell id="swCmm5xKt_yj3qullBZ7-101" value="[1..1]" style="text;html=1;align=center;verticalAlign=middle;whiteSpace=wrap;rounded=0;" vertex="1" parent="1">
          <mxGeometry x="1037.5" y="348" width="45" height="30" as="geometry" />
        </mxCell>
        <mxCell id="swCmm5xKt_yj3qullBZ7-102" value="[1..1]" style="text;html=1;align=center;verticalAlign=middle;whiteSpace=wrap;rounded=0;" vertex="1" parent="1">
          <mxGeometry x="1156.5" y="376" width="45" height="30" as="geometry" />
        </mxCell>
        <mxCell id="swCmm5xKt_yj3qullBZ7-103" value="[1..*]" style="text;html=1;align=center;verticalAlign=middle;whiteSpace=wrap;rounded=0;" vertex="1" parent="1">
          <mxGeometry x="1456.5" y="376" width="45" height="30" as="geometry" />
        </mxCell>
        <mxCell id="swCmm5xKt_yj3qullBZ7-104" value="[1..*]" style="text;html=1;align=center;verticalAlign=middle;whiteSpace=wrap;rounded=0;" vertex="1" parent="1">
          <mxGeometry x="1156" y="635.36" width="45" height="30" as="geometry" />
        </mxCell>
        <mxCell id="swCmm5xKt_yj3qullBZ7-105" value="[0..*]" style="text;html=1;align=center;verticalAlign=middle;whiteSpace=wrap;rounded=0;" vertex="1" parent="1">
          <mxGeometry x="1075" y="553" width="45" height="30" as="geometry" />
        </mxCell>
        <mxCell id="swCmm5xKt_yj3qullBZ7-106" value="[0..20]" style="text;html=1;align=center;verticalAlign=middle;whiteSpace=wrap;rounded=0;" vertex="1" parent="1">
          <mxGeometry x="689.5" y="569" width="45" height="30" as="geometry" />
        </mxCell>
        <mxCell id="swCmm5xKt_yj3qullBZ7-107" value="[1..*]" style="text;html=1;align=center;verticalAlign=middle;whiteSpace=wrap;rounded=0;" vertex="1" parent="1">
          <mxGeometry x="959" y="635.36" width="45" height="30" as="geometry" />
        </mxCell>
        <mxCell id="swCmm5xKt_yj3qullBZ7-108" value="Painting" style="swimlane;fontStyle=0;align=center;verticalAlign=top;childLayout=stackLayout;horizontal=1;startSize=26;horizontalStack=0;resizeParent=1;resizeLast=0;collapsible=1;marginBottom=0;rounded=0;shadow=0;strokeWidth=1;" vertex="1" parent="1">
          <mxGeometry x="510" y="889" width="160" height="130" as="geometry">
            <mxRectangle x="130" y="380" width="160" height="26" as="alternateBounds" />
          </mxGeometry>
        </mxCell>
        <mxCell id="swCmm5xKt_yj3qullBZ7-109" value="artobject_ID {FK}" style="text;align=left;verticalAlign=top;spacingLeft=4;spacingRight=4;overflow=hidden;rotatable=0;points=[[0,0.5],[1,0.5]];portConstraint=eastwest;" vertex="1" parent="swCmm5xKt_yj3qullBZ7-108">
          <mxGeometry y="26" width="160" height="26" as="geometry" />
        </mxCell>
        <mxCell id="swCmm5xKt_yj3qullBZ7-110" value="types" style="text;align=left;verticalAlign=top;spacingLeft=4;spacingRight=4;overflow=hidden;rotatable=0;points=[[0,0.5],[1,0.5]];portConstraint=eastwest;" vertex="1" parent="swCmm5xKt_yj3qullBZ7-108">
          <mxGeometry y="52" width="160" height="26" as="geometry" />
        </mxCell>
        <mxCell id="swCmm5xKt_yj3qullBZ7-111" value="material" style="text;align=left;verticalAlign=top;spacingLeft=4;spacingRight=4;overflow=hidden;rotatable=0;points=[[0,0.5],[1,0.5]];portConstraint=eastwest;" vertex="1" parent="swCmm5xKt_yj3qullBZ7-108">
          <mxGeometry y="78" width="160" height="26" as="geometry" />
        </mxCell>
        <mxCell id="swCmm5xKt_yj3qullBZ7-112" value="style" style="text;align=left;verticalAlign=top;spacingLeft=4;spacingRight=4;overflow=hidden;rotatable=0;points=[[0,0.5],[1,0.5]];portConstraint=eastwest;" vertex="1" parent="swCmm5xKt_yj3qullBZ7-108">
          <mxGeometry y="104" width="160" height="26" as="geometry" />
        </mxCell>
        <mxCell id="swCmm5xKt_yj3qullBZ7-113" value="Sculpture" style="swimlane;fontStyle=0;align=center;verticalAlign=top;childLayout=stackLayout;horizontal=1;startSize=26;horizontalStack=0;resizeParent=1;resizeLast=0;collapsible=1;marginBottom=0;rounded=0;shadow=0;strokeWidth=1;" vertex="1" parent="1">
          <mxGeometry x="715" y="889" width="160" height="160" as="geometry">
            <mxRectangle x="130" y="380" width="160" height="26" as="alternateBounds" />
          </mxGeometry>
        </mxCell>
        <mxCell id="swCmm5xKt_yj3qullBZ7-114" value="artobject_ID {FK}" style="text;align=left;verticalAlign=top;spacingLeft=4;spacingRight=4;overflow=hidden;rotatable=0;points=[[0,0.5],[1,0.5]];portConstraint=eastwest;" vertex="1" parent="swCmm5xKt_yj3qullBZ7-113">
          <mxGeometry y="26" width="160" height="26" as="geometry" />
        </mxCell>
        <mxCell id="swCmm5xKt_yj3qullBZ7-115" value="material" style="text;align=left;verticalAlign=top;spacingLeft=4;spacingRight=4;overflow=hidden;rotatable=0;points=[[0,0.5],[1,0.5]];portConstraint=eastwest;" vertex="1" parent="swCmm5xKt_yj3qullBZ7-113">
          <mxGeometry y="52" width="160" height="26" as="geometry" />
        </mxCell>
        <mxCell id="swCmm5xKt_yj3qullBZ7-116" value="height" style="text;align=left;verticalAlign=top;spacingLeft=4;spacingRight=4;overflow=hidden;rotatable=0;points=[[0,0.5],[1,0.5]];portConstraint=eastwest;" vertex="1" parent="swCmm5xKt_yj3qullBZ7-113">
          <mxGeometry y="78" width="160" height="26" as="geometry" />
        </mxCell>
        <mxCell id="swCmm5xKt_yj3qullBZ7-117" value="weight" style="text;align=left;verticalAlign=top;spacingLeft=4;spacingRight=4;overflow=hidden;rotatable=0;points=[[0,0.5],[1,0.5]];portConstraint=eastwest;" vertex="1" parent="swCmm5xKt_yj3qullBZ7-113">
          <mxGeometry y="104" width="160" height="26" as="geometry" />
        </mxCell>
        <mxCell id="swCmm5xKt_yj3qullBZ7-118" value="style" style="text;align=left;verticalAlign=top;spacingLeft=4;spacingRight=4;overflow=hidden;rotatable=0;points=[[0,0.5],[1,0.5]];portConstraint=eastwest;" vertex="1" parent="swCmm5xKt_yj3qullBZ7-113">
          <mxGeometry y="130" width="160" height="26" as="geometry" />
        </mxCell>
        <mxCell id="swCmm5xKt_yj3qullBZ7-119" value="Others" style="swimlane;fontStyle=0;align=center;verticalAlign=top;childLayout=stackLayout;horizontal=1;startSize=26;horizontalStack=0;resizeParent=1;resizeLast=0;collapsible=1;marginBottom=0;rounded=0;shadow=0;strokeWidth=1;" vertex="1" parent="1">
          <mxGeometry x="1115" y="889" width="160" height="110" as="geometry">
            <mxRectangle x="130" y="380" width="160" height="26" as="alternateBounds" />
          </mxGeometry>
        </mxCell>
        <mxCell id="swCmm5xKt_yj3qullBZ7-120" value="artobject_ID {FK}" style="text;align=left;verticalAlign=top;spacingLeft=4;spacingRight=4;overflow=hidden;rotatable=0;points=[[0,0.5],[1,0.5]];portConstraint=eastwest;" vertex="1" parent="swCmm5xKt_yj3qullBZ7-119">
          <mxGeometry y="26" width="160" height="26" as="geometry" />
        </mxCell>
        <mxCell id="swCmm5xKt_yj3qullBZ7-121" value="type" style="text;align=left;verticalAlign=top;spacingLeft=4;spacingRight=4;overflow=hidden;rotatable=0;points=[[0,0.5],[1,0.5]];portConstraint=eastwest;" vertex="1" parent="swCmm5xKt_yj3qullBZ7-119">
          <mxGeometry y="52" width="160" height="26" as="geometry" />
        </mxCell>
        <mxCell id="swCmm5xKt_yj3qullBZ7-122" value="style" style="text;align=left;verticalAlign=top;spacingLeft=4;spacingRight=4;overflow=hidden;rotatable=0;points=[[0,0.5],[1,0.5]];portConstraint=eastwest;" vertex="1" parent="swCmm5xKt_yj3qullBZ7-119">
          <mxGeometry y="78" width="160" height="26" as="geometry" />
        </mxCell>
        <mxCell id="swCmm5xKt_yj3qullBZ7-123" value="Statue" style="swimlane;fontStyle=0;align=center;verticalAlign=top;childLayout=stackLayout;horizontal=1;startSize=26;horizontalStack=0;resizeParent=1;resizeLast=0;collapsible=1;marginBottom=0;rounded=0;shadow=0;strokeWidth=1;" vertex="1" parent="1">
          <mxGeometry x="915" y="889" width="160" height="160" as="geometry">
            <mxRectangle x="130" y="380" width="160" height="26" as="alternateBounds" />
          </mxGeometry>
        </mxCell>
        <mxCell id="swCmm5xKt_yj3qullBZ7-124" value="artobject_ID {FK}" style="text;align=left;verticalAlign=top;spacingLeft=4;spacingRight=4;overflow=hidden;rotatable=0;points=[[0,0.5],[1,0.5]];portConstraint=eastwest;" vertex="1" parent="swCmm5xKt_yj3qullBZ7-123">
          <mxGeometry y="26" width="160" height="26" as="geometry" />
        </mxCell>
        <mxCell id="swCmm5xKt_yj3qullBZ7-125" value="material" style="text;align=left;verticalAlign=top;spacingLeft=4;spacingRight=4;overflow=hidden;rotatable=0;points=[[0,0.5],[1,0.5]];portConstraint=eastwest;" vertex="1" parent="swCmm5xKt_yj3qullBZ7-123">
          <mxGeometry y="52" width="160" height="26" as="geometry" />
        </mxCell>
        <mxCell id="swCmm5xKt_yj3qullBZ7-126" value="height" style="text;align=left;verticalAlign=top;spacingLeft=4;spacingRight=4;overflow=hidden;rotatable=0;points=[[0,0.5],[1,0.5]];portConstraint=eastwest;" vertex="1" parent="swCmm5xKt_yj3qullBZ7-123">
          <mxGeometry y="78" width="160" height="26" as="geometry" />
        </mxCell>
        <mxCell id="swCmm5xKt_yj3qullBZ7-127" value="weight" style="text;align=left;verticalAlign=top;spacingLeft=4;spacingRight=4;overflow=hidden;rotatable=0;points=[[0,0.5],[1,0.5]];portConstraint=eastwest;" vertex="1" parent="swCmm5xKt_yj3qullBZ7-123">
          <mxGeometry y="104" width="160" height="26" as="geometry" />
        </mxCell>
        <mxCell id="swCmm5xKt_yj3qullBZ7-128" value="style" style="text;align=left;verticalAlign=top;spacingLeft=4;spacingRight=4;overflow=hidden;rotatable=0;points=[[0,0.5],[1,0.5]];portConstraint=eastwest;" vertex="1" parent="swCmm5xKt_yj3qullBZ7-123">
          <mxGeometry y="130" width="160" height="26" as="geometry" />
        </mxCell>
        <mxCell id="swCmm5xKt_yj3qullBZ7-129" value="" style="triangle;whiteSpace=wrap;html=1;rotation=-90;" vertex="1" parent="1">
          <mxGeometry x="575" y="635.36" width="30" height="40" as="geometry" />
        </mxCell>
        <mxCell id="swCmm5xKt_yj3qullBZ7-130" value="" style="endArrow=none;html=1;rounded=0;exitX=0;exitY=0.5;exitDx=0;exitDy=0;entryX=0.5;entryY=0;entryDx=0;entryDy=0;" edge="1" parent="1" source="swCmm5xKt_yj3qullBZ7-129" target="swCmm5xKt_yj3qullBZ7-108">
          <mxGeometry width="50" height="50" relative="1" as="geometry">
            <mxPoint x="1319.74" y="1215" as="sourcePoint" />
            <mxPoint x="590" y="860" as="targetPoint" />
          </mxGeometry>
        </mxCell>
        <mxCell id="swCmm5xKt_yj3qullBZ7-131" value="" style="endArrow=none;html=1;rounded=0;" edge="1" parent="1">
          <mxGeometry width="50" height="50" relative="1" as="geometry">
            <mxPoint x="590" y="860" as="sourcePoint" />
            <mxPoint x="1195" y="859" as="targetPoint" />
          </mxGeometry>
        </mxCell>
        <mxCell id="swCmm5xKt_yj3qullBZ7-132" value="" style="endArrow=none;html=1;rounded=0;entryX=0.5;entryY=0;entryDx=0;entryDy=0;" edge="1" parent="1" target="swCmm5xKt_yj3qullBZ7-113">
          <mxGeometry width="50" height="50" relative="1" as="geometry">
            <mxPoint x="795" y="859" as="sourcePoint" />
            <mxPoint x="1075" y="799" as="targetPoint" />
          </mxGeometry>
        </mxCell>
        <mxCell id="swCmm5xKt_yj3qullBZ7-133" value="" style="endArrow=none;html=1;rounded=0;entryX=0.5;entryY=0;entryDx=0;entryDy=0;" edge="1" parent="1" target="swCmm5xKt_yj3qullBZ7-123">
          <mxGeometry width="50" height="50" relative="1" as="geometry">
            <mxPoint x="995" y="859" as="sourcePoint" />
            <mxPoint x="805" y="899" as="targetPoint" />
          </mxGeometry>
        </mxCell>
        <mxCell id="swCmm5xKt_yj3qullBZ7-134" value="" style="endArrow=none;html=1;rounded=0;entryX=0.5;entryY=0;entryDx=0;entryDy=0;" edge="1" parent="1" target="swCmm5xKt_yj3qullBZ7-119">
          <mxGeometry width="50" height="50" relative="1" as="geometry">
            <mxPoint x="1195" y="859" as="sourcePoint" />
            <mxPoint x="1005" y="899" as="targetPoint" />
          </mxGeometry>
        </mxCell>
        <mxCell id="swCmm5xKt_yj3qullBZ7-136" value="{Mandatory,Or}" style="text;whiteSpace=wrap;" vertex="1" parent="1">
          <mxGeometry x="597.5" y="834" width="90" height="30" as="geometry" />
        </mxCell>
        <mxCell id="swCmm5xKt_yj3qullBZ7-137" value="" style="endArrow=none;html=1;rounded=0;exitX=0.5;exitY=0;exitDx=0;exitDy=0;entryX=1;entryY=0.5;entryDx=0;entryDy=0;" edge="1" parent="1" source="swCmm5xKt_yj3qullBZ7-80" target="swCmm5xKt_yj3qullBZ7-18">
          <mxGeometry width="50" height="50" relative="1" as="geometry">
            <mxPoint x="735.5" y="634.31" as="sourcePoint" />
            <mxPoint x="655.5" y="635.31" as="targetPoint" />
            <Array as="points">
              <mxPoint x="824" y="595" />
            </Array>
          </mxGeometry>
        </mxCell>
        <mxCell id="swCmm5xKt_yj3qullBZ7-138" value="" style="endArrow=none;html=1;rounded=0;exitX=0.5;exitY=1;exitDx=0;exitDy=0;entryX=0.5;entryY=0;entryDx=0;entryDy=0;" edge="1" parent="1" source="swCmm5xKt_yj3qullBZ7-30" target="swCmm5xKt_yj3qullBZ7-81">
          <mxGeometry width="50" height="50" relative="1" as="geometry">
            <mxPoint x="1082.5" y="572" as="sourcePoint" />
            <mxPoint x="1062" y="620" as="targetPoint" />
            <Array as="points">
              <mxPoint x="1080" y="600" />
              <mxPoint x="1210" y="600" />
              <mxPoint x="1342" y="600" />
            </Array>
          </mxGeometry>
        </mxCell>
        <mxCell id="swCmm5xKt_yj3qullBZ7-140" value="&lt;font face=&quot;Tahoma&quot; style=&quot;font-size: 18px;&quot;&gt;&lt;font style=&quot;&quot;&gt;CS5097 Group3 :&amp;nbsp;&lt;/font&gt;&lt;/font&gt;&lt;span style=&quot;background-color: initial; font-size: 18px;&quot;&gt;&lt;font face=&quot;Tahoma&quot;&gt;Logical&amp;nbsp;&lt;/font&gt;&lt;/span&gt;&lt;font style=&quot;background-color: initial; font-size: 18px;&quot; face=&quot;Tahoma&quot;&gt;&lt;span style=&quot;background-color: initial;&quot;&gt;Model&lt;/span&gt;&lt;/font&gt;" style="text;html=1;align=left;verticalAlign=middle;whiteSpace=wrap;rounded=0;fontStyle=1" vertex="1" parent="1">
          <mxGeometry x="20" y="10" width="380" height="60" as="geometry" />
        </mxCell>
        <mxCell id="swCmm5xKt_yj3qullBZ7-141" value="Epoch" style="swimlane;fontStyle=0;align=center;verticalAlign=top;childLayout=stackLayout;horizontal=1;startSize=26;horizontalStack=0;resizeParent=1;resizeLast=0;collapsible=1;marginBottom=0;rounded=0;shadow=0;strokeWidth=1;" vertex="1" parent="1">
          <mxGeometry x="68" y="340" width="171.5" height="110" as="geometry">
            <mxRectangle x="130" y="380" width="160" height="26" as="alternateBounds" />
          </mxGeometry>
        </mxCell>
        <mxCell id="swCmm5xKt_yj3qullBZ7-142" value="epoch_ID {PK}" style="text;align=left;verticalAlign=top;spacingLeft=4;spacingRight=4;overflow=hidden;rotatable=0;points=[[0,0.5],[1,0.5]];portConstraint=eastwest;" vertex="1" parent="swCmm5xKt_yj3qullBZ7-141">
          <mxGeometry y="26" width="171.5" height="26" as="geometry" />
        </mxCell>
        <mxCell id="swCmm5xKt_yj3qullBZ7-143" value="epoch_name" style="text;align=left;verticalAlign=top;spacingLeft=4;spacingRight=4;overflow=hidden;rotatable=0;points=[[0,0.5],[1,0.5]];portConstraint=eastwest;" vertex="1" parent="swCmm5xKt_yj3qullBZ7-141">
          <mxGeometry y="52" width="171.5" height="26" as="geometry" />
        </mxCell>
        <mxCell id="swCmm5xKt_yj3qullBZ7-144" value="description" style="text;align=left;verticalAlign=top;spacingLeft=4;spacingRight=4;overflow=hidden;rotatable=0;points=[[0,0.5],[1,0.5]];portConstraint=eastwest;" vertex="1" parent="swCmm5xKt_yj3qullBZ7-141">
          <mxGeometry y="78" width="171.5" height="26" as="geometry" />
        </mxCell>
        <mxCell id="swCmm5xKt_yj3qullBZ7-145" value="CountryCultureOrigin" style="swimlane;fontStyle=0;align=center;verticalAlign=top;childLayout=stackLayout;horizontal=1;startSize=26;horizontalStack=0;resizeParent=1;resizeLast=0;collapsible=1;marginBottom=0;rounded=0;shadow=0;strokeWidth=1;" vertex="1" parent="1">
          <mxGeometry x="68.5" y="465" width="171.5" height="110" as="geometry">
            <mxRectangle x="130" y="380" width="160" height="26" as="alternateBounds" />
          </mxGeometry>
        </mxCell>
        <mxCell id="swCmm5xKt_yj3qullBZ7-146" value="countrycultureorigin_ID {PK}" style="text;align=left;verticalAlign=top;spacingLeft=4;spacingRight=4;overflow=hidden;rotatable=0;points=[[0,0.5],[1,0.5]];portConstraint=eastwest;" vertex="1" parent="swCmm5xKt_yj3qullBZ7-145">
          <mxGeometry y="26" width="171.5" height="26" as="geometry" />
        </mxCell>
        <mxCell id="swCmm5xKt_yj3qullBZ7-147" value="countrycultureorigin_name" style="text;align=left;verticalAlign=top;spacingLeft=4;spacingRight=4;overflow=hidden;rotatable=0;points=[[0,0.5],[1,0.5]];portConstraint=eastwest;" vertex="1" parent="swCmm5xKt_yj3qullBZ7-145">
          <mxGeometry y="52" width="171.5" height="26" as="geometry" />
        </mxCell>
        <mxCell id="swCmm5xKt_yj3qullBZ7-148" value="description" style="text;align=left;verticalAlign=top;spacingLeft=4;spacingRight=4;overflow=hidden;rotatable=0;points=[[0,0.5],[1,0.5]];portConstraint=eastwest;" vertex="1" parent="swCmm5xKt_yj3qullBZ7-145">
          <mxGeometry y="78" width="171.5" height="26" as="geometry" />
        </mxCell>
        <mxCell id="swCmm5xKt_yj3qullBZ7-150" value="ArtsFriendsCircle" style="swimlane;fontStyle=0;align=center;verticalAlign=top;childLayout=stackLayout;horizontal=1;startSize=26;horizontalStack=0;resizeParent=1;resizeLast=0;collapsible=1;marginBottom=0;rounded=0;shadow=0;strokeWidth=1;" vertex="1" parent="1">
          <mxGeometry x="79.5" y="827" width="160" height="182" as="geometry">
            <mxRectangle x="130" y="380" width="160" height="26" as="alternateBounds" />
          </mxGeometry>
        </mxCell>
        <mxCell id="swCmm5xKt_yj3qullBZ7-151" value="afc_ID {PK}" style="text;align=left;verticalAlign=top;spacingLeft=4;spacingRight=4;overflow=hidden;rotatable=0;points=[[0,0.5],[1,0.5]];portConstraint=eastwest;" vertex="1" parent="swCmm5xKt_yj3qullBZ7-150">
          <mxGeometry y="26" width="160" height="26" as="geometry" />
        </mxCell>
        <mxCell id="swCmm5xKt_yj3qullBZ7-152" value="afc_name" style="text;align=left;verticalAlign=top;spacingLeft=4;spacingRight=4;overflow=hidden;rotatable=0;points=[[0,0.5],[1,0.5]];portConstraint=eastwest;" vertex="1" parent="swCmm5xKt_yj3qullBZ7-150">
          <mxGeometry y="52" width="160" height="26" as="geometry" />
        </mxCell>
        <mxCell id="swCmm5xKt_yj3qullBZ7-153" value="description" style="text;align=left;verticalAlign=top;spacingLeft=4;spacingRight=4;overflow=hidden;rotatable=0;points=[[0,0.5],[1,0.5]];portConstraint=eastwest;" vertex="1" parent="swCmm5xKt_yj3qullBZ7-150">
          <mxGeometry y="78" width="160" height="26" as="geometry" />
        </mxCell>
        <mxCell id="swCmm5xKt_yj3qullBZ7-154" value="address" style="text;align=left;verticalAlign=top;spacingLeft=4;spacingRight=4;overflow=hidden;rotatable=0;points=[[0,0.5],[1,0.5]];portConstraint=eastwest;" vertex="1" parent="swCmm5xKt_yj3qullBZ7-150">
          <mxGeometry y="104" width="160" height="26" as="geometry" />
        </mxCell>
        <mxCell id="swCmm5xKt_yj3qullBZ7-155" value="phone" style="text;align=left;verticalAlign=top;spacingLeft=4;spacingRight=4;overflow=hidden;rotatable=0;points=[[0,0.5],[1,0.5]];portConstraint=eastwest;" vertex="1" parent="swCmm5xKt_yj3qullBZ7-150">
          <mxGeometry y="130" width="160" height="26" as="geometry" />
        </mxCell>
        <mxCell id="swCmm5xKt_yj3qullBZ7-156" value="currentcontactname" style="text;align=left;verticalAlign=top;spacingLeft=4;spacingRight=4;overflow=hidden;rotatable=0;points=[[0,0.5],[1,0.5]];portConstraint=eastwest;" vertex="1" parent="swCmm5xKt_yj3qullBZ7-150">
          <mxGeometry y="156" width="160" height="26" as="geometry" />
        </mxCell>
        <mxCell id="swCmm5xKt_yj3qullBZ7-158" value="BorrowFromAFC" style="swimlane;fontStyle=0;align=center;verticalAlign=top;childLayout=stackLayout;horizontal=1;startSize=26;horizontalStack=0;resizeParent=1;resizeLast=0;collapsible=1;marginBottom=0;rounded=0;shadow=0;strokeWidth=1;" vertex="1" parent="1">
          <mxGeometry x="299.5" y="940" width="160" height="130" as="geometry">
            <mxRectangle x="130" y="380" width="160" height="26" as="alternateBounds" />
          </mxGeometry>
        </mxCell>
        <mxCell id="swCmm5xKt_yj3qullBZ7-159" value="artobject_ID {PK}" style="text;align=left;verticalAlign=top;spacingLeft=4;spacingRight=4;overflow=hidden;rotatable=0;points=[[0,0.5],[1,0.5]];portConstraint=eastwest;" vertex="1" parent="swCmm5xKt_yj3qullBZ7-158">
          <mxGeometry y="26" width="160" height="26" as="geometry" />
        </mxCell>
        <mxCell id="swCmm5xKt_yj3qullBZ7-160" value="afc_ID {PK}" style="text;align=left;verticalAlign=top;spacingLeft=4;spacingRight=4;overflow=hidden;rotatable=0;points=[[0,0.5],[1,0.5]];portConstraint=eastwest;" vertex="1" parent="swCmm5xKt_yj3qullBZ7-158">
          <mxGeometry y="52" width="160" height="26" as="geometry" />
        </mxCell>
        <mxCell id="swCmm5xKt_yj3qullBZ7-161" value="date_borrowed" style="text;align=left;verticalAlign=top;spacingLeft=4;spacingRight=4;overflow=hidden;rotatable=0;points=[[0,0.5],[1,0.5]];portConstraint=eastwest;" vertex="1" parent="swCmm5xKt_yj3qullBZ7-158">
          <mxGeometry y="78" width="160" height="26" as="geometry" />
        </mxCell>
        <mxCell id="swCmm5xKt_yj3qullBZ7-162" value="date_returned" style="text;align=left;verticalAlign=top;spacingLeft=4;spacingRight=4;overflow=hidden;rotatable=0;points=[[0,0.5],[1,0.5]];portConstraint=eastwest;" vertex="1" parent="swCmm5xKt_yj3qullBZ7-158">
          <mxGeometry y="104" width="160" height="26" as="geometry" />
        </mxCell>
        <mxCell id="swCmm5xKt_yj3qullBZ7-163" value="&lt;span style=&quot;font-size: 11px; text-align: right; text-wrap-mode: nowrap; background-color: rgb(255, 255, 255);&quot;&gt;Borrow Art Object from&lt;/span&gt;&lt;br style=&quot;font-size: 11px; text-align: right; text-wrap-mode: nowrap;&quot;&gt;&lt;span style=&quot;font-size: 11px; text-align: right; text-wrap-mode: nowrap; background-color: rgb(255, 255, 255);&quot;&gt;Arts Friends Circle&lt;/span&gt;" style="rhombus;whiteSpace=wrap;html=1;" vertex="1" parent="1">
          <mxGeometry x="294.5" y="812.36" width="170" height="80" as="geometry" />
        </mxCell>
        <mxCell id="swCmm5xKt_yj3qullBZ7-164" value="" style="endArrow=none;html=1;rounded=0;entryX=0;entryY=0.5;entryDx=0;entryDy=0;exitX=0.5;exitY=0;exitDx=0;exitDy=0;" edge="1" parent="1" source="swCmm5xKt_yj3qullBZ7-163" target="swCmm5xKt_yj3qullBZ7-19">
          <mxGeometry width="50" height="50" relative="1" as="geometry">
            <mxPoint x="380" y="800" as="sourcePoint" />
            <mxPoint x="430" y="750" as="targetPoint" />
            <Array as="points">
              <mxPoint x="380" y="621" />
            </Array>
          </mxGeometry>
        </mxCell>
        <mxCell id="swCmm5xKt_yj3qullBZ7-165" value="" style="endArrow=none;html=1;rounded=0;entryX=0;entryY=0.5;entryDx=0;entryDy=0;exitX=0.998;exitY=-0.003;exitDx=0;exitDy=0;exitPerimeter=0;" edge="1" parent="1" source="swCmm5xKt_yj3qullBZ7-151" target="swCmm5xKt_yj3qullBZ7-163">
          <mxGeometry width="50" height="50" relative="1" as="geometry">
            <mxPoint x="380" y="860" as="sourcePoint" />
            <mxPoint x="430" y="810" as="targetPoint" />
          </mxGeometry>
        </mxCell>
        <mxCell id="swCmm5xKt_yj3qullBZ7-168" value="" style="endArrow=none;html=1;rounded=0;entryX=0.5;entryY=1;entryDx=0;entryDy=0;exitX=0.5;exitY=0;exitDx=0;exitDy=0;dashed=1;" edge="1" parent="1" source="swCmm5xKt_yj3qullBZ7-158" target="swCmm5xKt_yj3qullBZ7-163">
          <mxGeometry width="50" height="50" relative="1" as="geometry">
            <mxPoint x="441" y="970" as="sourcePoint" />
            <mxPoint x="491" y="920" as="targetPoint" />
          </mxGeometry>
        </mxCell>
        <mxCell id="swCmm5xKt_yj3qullBZ7-169" value="Borrow" style="edgeLabel;html=1;align=center;verticalAlign=middle;resizable=0;points=[];" vertex="1" connectable="0" parent="swCmm5xKt_yj3qullBZ7-168">
          <mxGeometry x="0.016" relative="1" as="geometry">
            <mxPoint as="offset" />
          </mxGeometry>
        </mxCell>
        <mxCell id="swCmm5xKt_yj3qullBZ7-170" value="" style="endArrow=none;html=1;rounded=0;entryX=0;entryY=0.5;entryDx=0;entryDy=0;exitX=0.999;exitY=-0.002;exitDx=0;exitDy=0;exitPerimeter=0;" edge="1" parent="1" source="swCmm5xKt_yj3qullBZ7-142" target="swCmm5xKt_yj3qullBZ7-11">
          <mxGeometry width="50" height="50" relative="1" as="geometry">
            <mxPoint x="250" y="360" as="sourcePoint" />
            <mxPoint x="298.2222493489583" y="420" as="targetPoint" />
            <Array as="points">
              <mxPoint x="330" y="366" />
              <mxPoint x="330" y="465" />
            </Array>
          </mxGeometry>
        </mxCell>
        <mxCell id="swCmm5xKt_yj3qullBZ7-172" value="Artist Epoch" style="edgeLabel;html=1;align=center;verticalAlign=middle;resizable=0;points=[];" vertex="1" connectable="0" parent="swCmm5xKt_yj3qullBZ7-170">
          <mxGeometry x="-0.0867" y="-4" relative="1" as="geometry">
            <mxPoint as="offset" />
          </mxGeometry>
        </mxCell>
        <mxCell id="swCmm5xKt_yj3qullBZ7-171" value="" style="endArrow=none;html=1;rounded=0;exitX=0.998;exitY=-0.005;exitDx=0;exitDy=0;exitPerimeter=0;entryX=0;entryY=0.5;entryDx=0;entryDy=0;" edge="1" parent="1" source="swCmm5xKt_yj3qullBZ7-146" target="swCmm5xKt_yj3qullBZ7-12">
          <mxGeometry width="50" height="50" relative="1" as="geometry">
            <mxPoint x="250" y="369" as="sourcePoint" />
            <mxPoint x="500" y="475" as="targetPoint" />
          </mxGeometry>
        </mxCell>
        <mxCell id="swCmm5xKt_yj3qullBZ7-173" value="&lt;span style=&quot;text-align: left;&quot;&gt;Country&amp;nbsp;&lt;/span&gt;&lt;span style=&quot;text-align: left;&quot;&gt;of origin&lt;/span&gt;" style="edgeLabel;html=1;align=center;verticalAlign=middle;resizable=0;points=[];" vertex="1" connectable="0" parent="swCmm5xKt_yj3qullBZ7-171">
          <mxGeometry x="-0.4091" y="1" relative="1" as="geometry">
            <mxPoint x="17" y="1" as="offset" />
          </mxGeometry>
        </mxCell>
        <mxCell id="swCmm5xKt_yj3qullBZ7-177" value="LoyaltyCard" style="swimlane;fontStyle=0;align=center;verticalAlign=top;childLayout=stackLayout;horizontal=1;startSize=26;horizontalStack=0;resizeParent=1;resizeLast=0;collapsible=1;marginBottom=0;rounded=0;shadow=0;strokeWidth=1;" vertex="1" parent="1">
          <mxGeometry x="1498.5" y="600" width="160" height="79" as="geometry">
            <mxRectangle x="130" y="380" width="160" height="26" as="alternateBounds" />
          </mxGeometry>
        </mxCell>
        <mxCell id="swCmm5xKt_yj3qullBZ7-178" value="loyaltycard_No {PK}" style="text;align=left;verticalAlign=top;spacingLeft=4;spacingRight=4;overflow=hidden;rotatable=0;points=[[0,0.5],[1,0.5]];portConstraint=eastwest;" vertex="1" parent="swCmm5xKt_yj3qullBZ7-177">
          <mxGeometry y="26" width="160" height="26" as="geometry" />
        </mxCell>
        <mxCell id="swCmm5xKt_yj3qullBZ7-180" value="cardissue_date" style="text;align=left;verticalAlign=top;spacingLeft=4;spacingRight=4;overflow=hidden;rotatable=0;points=[[0,0.5],[1,0.5]];portConstraint=eastwest;" vertex="1" parent="swCmm5xKt_yj3qullBZ7-177">
          <mxGeometry y="52" width="160" height="26" as="geometry" />
        </mxCell>
        <mxCell id="swCmm5xKt_yj3qullBZ7-181" value="" style="endArrow=none;html=1;rounded=0;entryX=0.5;entryY=0;entryDx=0;entryDy=0;exitX=0.5;exitY=1;exitDx=0;exitDy=0;" edge="1" parent="1" source="swCmm5xKt_yj3qullBZ7-41" target="swCmm5xKt_yj3qullBZ7-177">
          <mxGeometry width="50" height="50" relative="1" as="geometry">
            <mxPoint x="1600" y="520" as="sourcePoint" />
            <mxPoint x="1580" y="690" as="targetPoint" />
          </mxGeometry>
        </mxCell>
        <mxCell id="swCmm5xKt_yj3qullBZ7-182" value="&lt;span style=&quot;text-align: left;&quot;&gt;Loyal visitor issue&lt;/span&gt;&lt;div style=&quot;&quot;&gt;a loyalty card&lt;/div&gt;" style="edgeLabel;html=1;align=center;verticalAlign=middle;resizable=0;points=[];" vertex="1" connectable="0" parent="swCmm5xKt_yj3qullBZ7-181">
          <mxGeometry x="-0.1574" y="-1" relative="1" as="geometry">
            <mxPoint x="1" y="3" as="offset" />
          </mxGeometry>
        </mxCell>
        <mxCell id="swCmm5xKt_yj3qullBZ7-183" value="[1..1]" style="text;html=1;align=center;verticalAlign=middle;whiteSpace=wrap;rounded=0;" vertex="1" parent="1">
          <mxGeometry x="234.5" y="340" width="45" height="30" as="geometry" />
        </mxCell>
        <mxCell id="swCmm5xKt_yj3qullBZ7-184" value="[1..1]" style="text;html=1;align=center;verticalAlign=middle;whiteSpace=wrap;rounded=0;" vertex="1" parent="1">
          <mxGeometry x="450" y="440" width="45" height="30" as="geometry" />
        </mxCell>
        <mxCell id="swCmm5xKt_yj3qullBZ7-185" value="[1..1]" style="text;html=1;align=center;verticalAlign=middle;whiteSpace=wrap;rounded=0;" vertex="1" parent="1">
          <mxGeometry x="234.5" y="486" width="45" height="30" as="geometry" />
        </mxCell>
        <mxCell id="swCmm5xKt_yj3qullBZ7-186" value="[1..1]" style="text;html=1;align=center;verticalAlign=middle;whiteSpace=wrap;rounded=0;" vertex="1" parent="1">
          <mxGeometry x="450" y="486" width="45" height="30" as="geometry" />
        </mxCell>
        <mxCell id="swCmm5xKt_yj3qullBZ7-187" value="[1..1]" style="text;html=1;align=center;verticalAlign=middle;whiteSpace=wrap;rounded=0;" vertex="1" parent="1">
          <mxGeometry x="234.5" y="623.5" width="45" height="30" as="geometry" />
        </mxCell>
        <mxCell id="swCmm5xKt_yj3qullBZ7-188" value="[1..*]" style="text;html=1;align=center;verticalAlign=middle;whiteSpace=wrap;rounded=0;" vertex="1" parent="1">
          <mxGeometry x="450" y="540" width="45" height="30" as="geometry" />
        </mxCell>
        <mxCell id="swCmm5xKt_yj3qullBZ7-190" value="[1..1]" style="text;html=1;align=center;verticalAlign=middle;whiteSpace=wrap;rounded=0;" vertex="1" parent="1">
          <mxGeometry x="450" y="618" width="45" height="30" as="geometry" />
        </mxCell>
        <mxCell id="swCmm5xKt_yj3qullBZ7-191" value="[1..1]" style="text;html=1;align=center;verticalAlign=middle;whiteSpace=wrap;rounded=0;" vertex="1" parent="1">
          <mxGeometry x="234.5" y="851" width="45" height="30" as="geometry" />
        </mxCell>
        <mxCell id="swCmm5xKt_yj3qullBZ7-193" value="[1..1]" style="text;html=1;align=center;verticalAlign=middle;whiteSpace=wrap;rounded=0;" vertex="1" parent="1">
          <mxGeometry x="1574" y="500" width="45" height="30" as="geometry" />
        </mxCell>
        <mxCell id="swCmm5xKt_yj3qullBZ7-194" value="[1..1]" style="text;html=1;align=center;verticalAlign=middle;whiteSpace=wrap;rounded=0;" vertex="1" parent="1">
          <mxGeometry x="1574" y="573" width="45" height="30" as="geometry" />
        </mxCell>
      </root>
    </mxGraphModel>
  </diagram>
</mxfile>
